<svg width="132" height="132" viewBox="0 0 132 132" fill="none" xmlns="http://www.w3.org/2000/svg">
<g filter="url(#filter0_d_181_233)">
<rect x="2" y="1" width="128" height="128" rx="64" fill="#F7F7F7"/>
</g>
<g opacity="0.9">
<mask id="mask0_181_233" style="mask-type:luminance" maskUnits="userSpaceOnUse" x="59" y="15" width="15" height="15">
<rect x="59" y="15" width="15" height="15" fill="white"/>
</mask>
<g mask="url(#mask0_181_233)">
<circle cx="66.8943" cy="22.1053" r="6.60526" fill="white" stroke="black"/>
</g>
</g>
<rect opacity="0.01" x="30.5" y="40.5" width="72" height="66" fill="#D8D8D8" stroke="#979797"/>
<path fill-rule="evenodd" clip-rule="evenodd" d="M80.3586 96.3787L71.7324 98.8433L74.197 90.2171L92.6866 71.7275L98.8482 77.8891L80.3586 96.3787V96.3787Z" stroke="black" stroke-linecap="round" stroke-linejoin="round"/>
<path d="M87.7559 76.6562L93.9174 82.8178" stroke="black" stroke-linejoin="round"/>
<path d="M74.1973 90.2178L80.3588 96.3793" stroke="black" stroke-linecap="round" stroke-linejoin="round"/>
<path d="M65.5702 98.844H42.1562V47.0869H47.0855" stroke="black" stroke-linecap="round" stroke-linejoin="round"/>
<path d="M81.5898 47.0869H86.5191V69.2685" stroke="black" stroke-linecap="round" stroke-linejoin="round"/>
<path fill-rule="evenodd" clip-rule="evenodd" d="M73.9998 88.6045L81.7168 80.5008L81.7168 52.0008H47.337L73.9998 88.6045Z" fill="#0E67A9" fill-opacity="0.3"/>
<path fill-rule="evenodd" clip-rule="evenodd" d="M69.268 47.0865C69.268 44.3655 67.0621 42.1572 64.3387 42.1572C61.6178 42.1572 59.4095 44.3655 59.4095 47.0865H52.0156V54.4803H76.6619V47.0865H69.268Z" fill="white" stroke="black" stroke-linecap="round" stroke-linejoin="round"/>
<path d="M81.5894 71.7326V52.0156H76.6602" stroke="black" stroke-linecap="round" stroke-linejoin="round"/>
<path d="M52.0152 52.0156H47.0859V93.9142H66.8029" stroke="black" stroke-linecap="round" stroke-linejoin="round"/>
<path d="M54.4785 64.3389H74.1955" stroke="black" stroke-linecap="round" stroke-linejoin="round"/>
<path d="M54.4785 69.2686H74.1955" stroke="black" stroke-linecap="round" stroke-linejoin="round"/>
<path d="M54.4785 74.1973H74.1955" stroke="black" stroke-linecap="round" stroke-linejoin="round"/>
<path d="M54.4785 79.127H65.5693" stroke="black" stroke-linecap="round" stroke-linejoin="round"/>
<defs>
<filter id="filter0_d_181_233" x="0" y="0" width="132" height="132" filterUnits="userSpaceOnUse" color-interpolation-filters="sRGB">
<feFlood flood-opacity="0" result="BackgroundImageFix"/>
<feColorMatrix in="SourceAlpha" type="matrix" values="0 0 0 0 0 0 0 0 0 0 0 0 0 0 0 0 0 0 127 0" result="hardAlpha"/>
<feOffset dy="1"/>
<feGaussianBlur stdDeviation="1"/>
<feColorMatrix type="matrix" values="0 0 0 0 0 0 0 0 0 0 0 0 0 0 0 0 0 0 0.3 0"/>
<feBlend mode="normal" in2="BackgroundImageFix" result="effect1_dropShadow_181_233"/>
<feBlend mode="normal" in="SourceGraphic" in2="effect1_dropShadow_181_233" result="shape"/>
</filter>
</defs>
</svg>
