<svg width="48" height="48" viewBox="0 0 48 48" fill="none" xmlns="http://www.w3.org/2000/svg">
<path fill-rule="evenodd" clip-rule="evenodd" d="M0.873047 37.3486H46.7509V47.4592H0.873047V37.3486Z" fill="#0E67A9" fill-opacity="0.3"/>
<path fill-rule="evenodd" clip-rule="evenodd" d="M6.90234 24.6259H40.6676V13.8516H6.90234V24.6259Z" fill="#0E67A9" fill-opacity="0.3"/>
<path fill-rule="evenodd" clip-rule="evenodd" d="M39.9996 36.6276H46.1245L40.4978 24.5645L6.90234 24.6605L39.9996 36.6276Z" fill="#0E67A9" fill-opacity="0.3"/>
<path fill-rule="evenodd" clip-rule="evenodd" d="M0.5 47.2229H46.7055V37.1123H0.5V47.2229Z" stroke="#231F20" stroke-linecap="round" stroke-linejoin="round"/>
<path fill-rule="evenodd" clip-rule="evenodd" d="M40.6904 24.5645H6.53852L0.511719 37.1124H46.7172L40.6904 24.5645Z" stroke="#231F20" stroke-linecap="round" stroke-linejoin="round"/>
<path d="M16.7559 42.4923V40.7168H29.2544V42.4923" stroke="#231F20" stroke-linecap="round" stroke-linejoin="round"/>
<path fill-rule="evenodd" clip-rule="evenodd" d="M10.209 33.0236H11.9945V31.248H10.209V33.0236Z" fill="#231F20"/>
<path fill-rule="evenodd" clip-rule="evenodd" d="M16.7559 33.0236H18.5414V31.248H16.7559V33.0236Z" fill="#231F20"/>
<path fill-rule="evenodd" clip-rule="evenodd" d="M22.707 33.0236H24.4925V31.248H22.707V33.0236Z" fill="#231F20"/>
<path fill-rule="evenodd" clip-rule="evenodd" d="M28.6582 33.0236H30.4437V31.248H28.6582V33.0236Z" fill="#231F20"/>
<path fill-rule="evenodd" clip-rule="evenodd" d="M34.6094 33.0236H36.3949V31.248H34.6094V33.0236Z" fill="#231F20"/>
<path fill-rule="evenodd" clip-rule="evenodd" d="M31.6348 30.0636H33.4203V28.2881H31.6348V30.0636Z" fill="#231F20"/>
<path fill-rule="evenodd" clip-rule="evenodd" d="M25.6836 30.0636H27.4691V28.2881H25.6836V30.0636Z" fill="#231F20"/>
<path fill-rule="evenodd" clip-rule="evenodd" d="M19.7305 30.0636H21.516V28.2881H19.7305V30.0636Z" fill="#231F20"/>
<path fill-rule="evenodd" clip-rule="evenodd" d="M13.7793 30.0636H15.5648V28.2881H13.7793V30.0636Z" fill="#231F20"/>
<path fill-rule="evenodd" clip-rule="evenodd" d="M6.56836 24.6063H40.7579V13.832H6.56836V24.6063Z" stroke="#231F20" stroke-linecap="round" stroke-linejoin="round"/>
<path fill-rule="evenodd" clip-rule="evenodd" d="M10.209 20.595H20.9221V16.4521H10.209V20.595Z" fill="white"/>
<path fill-rule="evenodd" clip-rule="evenodd" d="M9.91602 20.9612H20.6291V16.8184H9.91602V20.9612Z" stroke="#231F20" stroke-linecap="round" stroke-linejoin="round"/>
<path fill-rule="evenodd" clip-rule="evenodd" d="M17.1359 6.86523C17.1359 6.86523 15.2835 12.927 11.1021 13.0479C6.92065 13.1688 17.4808 13.0479 17.4808 13.0479L17.1359 6.86523Z" fill="#0E67A9" fill-opacity="0.3"/>
<path fill-rule="evenodd" clip-rule="evenodd" d="M17.6532 5.86914L9.91602 7.79261V13.563H17.6532V5.86914Z" stroke="#231F20" stroke-linecap="round" stroke-linejoin="round"/>
<path fill-rule="evenodd" clip-rule="evenodd" d="M41.1574 4.63347C41.1574 5.7712 40.2524 6.7002 39.1462 6.7002H31.1011C29.9949 6.7002 29.0898 5.7712 29.0898 4.63347V2.56673C29.0898 1.43003 29.9949 0.5 31.1011 0.5H39.1462C40.2524 0.5 41.1574 1.43003 41.1574 2.56673V4.63347Z" stroke="#231F20" stroke-linecap="round" stroke-linejoin="round"/>
<path d="M35.1239 6.7002V13.3348" stroke="#231F20" stroke-linecap="round" stroke-linejoin="round"/>
</svg>
