<svg width="131" height="131" viewBox="0 0 131 131" fill="none" xmlns="http://www.w3.org/2000/svg">
<g id="icon_accept_open">
<circle id="Oval" cx="65.5" cy="65.5" r="64.5" fill="white" stroke="#CCCCCC" stroke-width="2"/>
<g id="Group 3">
<path id="Path 13" d="M32.4824 42L32.4824 83H36.4824V40C36.4824 40 34.4824 40.5 33.4824 41C32.4824 41.5 32.4824 42 32.4824 42Z" fill="#0E67A9" fill-opacity="0.3"/>
<path id="Path 13_2" d="M29.4824 83.4651V92L36.4824 93V83C36.4824 83 32.9824 83.1163 31.2324 83.2326C29.4824 83.3488 29.4824 83.4651 29.4824 83.4651Z" fill="#0E67A9" fill-opacity="0.3"/>
<path id="Stroke 6984" d="M32.1699 83.3125V44.25C32.1699 41.6594 34.2699 39.5625 36.8574 39.5625H93.1074C95.6949 39.5625 97.7949 41.6594 97.7949 44.25V83.3125" stroke="black" stroke-linecap="round" stroke-linejoin="round"/>
<path id="Stroke 6985" fill-rule="evenodd" clip-rule="evenodd" d="M72.7949 83.3125V86.4375H57.1699V83.3125H29.0449V89.5625C29.0449 91.2875 30.4449 92.6875 32.1699 92.6875H97.7949C99.523 92.6875 100.92 91.2875 100.92 89.5625V83.3125H72.7949V83.3125Z" stroke="black" stroke-linecap="round" stroke-linejoin="round"/>
<path id="Stroke 6986" d="M54.0449 61.4375V77.0625H75.9199V61.4375" stroke="black" stroke-linecap="round" stroke-linejoin="round"/>
<path id="Stroke 6987" fill-rule="evenodd" clip-rule="evenodd" d="M64.9824 47.375L82.1699 61.4375H47.7949L64.9824 47.375Z" stroke="black" stroke-linecap="round" stroke-linejoin="round"/>
<path id="Stroke 6988" fill-rule="evenodd" clip-rule="evenodd" d="M60.2949 77.0625H69.6699V67.6875H60.2949V77.0625Z" stroke="black" stroke-linecap="round" stroke-linejoin="round"/>
</g>
</g>
</svg>
