<svg width="49" height="47" viewBox="0 0 49 47" fill="none" xmlns="http://www.w3.org/2000/svg">
<path d="M48.5 46.5C46.4132 46.5 44.3252 44.7102 44.3252 42.5C44.3252 44.7102 42.2396 46.5 40.1528 46.5C38.0648 46.5 35.978 44.7102 35.978 42.5C35.978 44.7102 33.8912 46.5 31.8044 46.5C29.7176 46.5 27.6308 44.7102 27.6308 42.5C27.6308 44.7102 25.544 46.5 23.456 46.5C21.3692 46.5 19.2824 44.7102 19.2824 42.5C19.2824 44.7102 17.1956 46.5 15.1088 46.5C13.022 46.5 10.9352 44.7102 10.9352 42.5C10.9352 44.7102 8.84721 46.5 6.76041 46.5C4.67478 46.5 2.5868 44.7102 2.5868 42.5C2.5868 43.8682 1.59912 45.1318 0.5 45.8682" stroke="black" stroke-linecap="round" stroke-linejoin="round"/>
<path fill-rule="evenodd" clip-rule="evenodd" d="M4.85654 24.686L10.0398 22.6454L11.2529 19.8523L14.1207 21.035L34.8537 13.0859L36.0656 10.2928L38.9334 11.4742L44.1167 9.43363L43.3453 7.39302C40.1465 -0.340441 29.6705 -1.19959 18.7516 2.98946C7.83505 7.17852 0.886356 14.912 4.08511 22.6454L4.85654 24.686Z" fill="#0E67A9" fill-opacity="0.3"/>
<path fill-rule="evenodd" clip-rule="evenodd" d="M11.2202 19.9567L10.0959 22.8797L5.27531 24.6862C5.27531 24.6862 -3.72202 12.2602 19.9316 2.76758C19.9316 2.76758 9.03866 9.73442 11.2202 19.9567Z" fill="white"/>
<path d="M19.0805 2.76744L17.6641 0.5" stroke="black" stroke-linecap="round" stroke-linejoin="round"/>
<path d="M19.1758 38.2908C22.1163 36.004 26.5817 34.5117 31.702 34.5117H44.1176" stroke="black" stroke-linecap="round" stroke-linejoin="round"/>
<path d="M32.023 34.5117L25.2207 17.1279" stroke="black" stroke-linecap="round" stroke-linejoin="round"/>
<path fill-rule="evenodd" clip-rule="evenodd" d="M4.08511 22.6454L4.85654 24.686L10.0398 22.6454L11.2529 19.8523L14.1207 21.035L34.8537 13.0859L36.0656 10.2928L38.9334 11.4742L44.1167 9.43363L43.3453 7.39302C40.1465 -0.340441 29.6705 -1.19959 18.7516 2.98946C7.83505 7.17852 0.886356 14.912 4.08511 22.6454Z" stroke="black" stroke-linecap="round" stroke-linejoin="round"/>
</svg>
