<svg width="131" height="131" viewBox="0 0 131 131" fill="none" xmlns="http://www.w3.org/2000/svg">
<g id="icon_proposal">
<circle id="Oval" cx="65.5" cy="65.5" r="64.5" fill="white" stroke="#CCCCCC" stroke-width="2"/>
<g id="Group 5">
<path id="Stroke 7349" fill-rule="evenodd" clip-rule="evenodd" d="M74.2598 100.497L77.2813 89.9218L99.9493 67.2539L107.503 74.8079L84.8353 97.4758L74.2598 100.497Z" fill="white" stroke="black" stroke-linecap="round" stroke-linejoin="round"/>
<path id="Rectangle 6" fill-rule="evenodd" clip-rule="evenodd" d="M82.8195 95.4589L84.5384 97.6247L74.2584 100.495L75.0111 97.9768L82.8195 95.4589Z" fill="#0E67A9" fill-opacity="0.3"/>
<path id="Stroke 7350" d="M93.9062 73.293L101.46 80.8469" stroke="black" stroke-linejoin="round"/>
<path id="Stroke 7351" d="M77.2812 89.9219L84.8352 97.4758" stroke="black" stroke-linecap="round" stroke-linejoin="round"/>
<path id="Stroke 7352" d="M66.705 100.496H38V37.043H44.0432" stroke="black" stroke-linecap="round" stroke-linejoin="round"/>
<path id="Stroke 7353" d="M86.3457 37.043H92.3889V64.2372" stroke="black" stroke-linecap="round" stroke-linejoin="round"/>
<path id="Stroke 7354" fill-rule="evenodd" clip-rule="evenodd" d="M71.237 37.0432C71.237 33.7073 68.5327 31 65.1939 31C61.858 31 59.1507 33.7073 59.1507 37.0432H50.0859V46.1079H80.3018V37.0432H71.237Z" fill="white" stroke="black" stroke-linecap="round" stroke-linejoin="round"/>
<path id="Stroke 7355" d="M86.3459 67.2586V43.0859H80.3027" stroke="black" stroke-linecap="round" stroke-linejoin="round"/>
<path id="Stroke 7356" d="M50.0861 43.0859H44.043V94.4528H68.2156" stroke="black" stroke-linecap="round" stroke-linejoin="round"/>
<path id="Stroke 7357" d="M53.1074 58.1953H77.2801" stroke="black" stroke-linecap="round" stroke-linejoin="round"/>
<path id="Stroke 7358" d="M53.1074 64.2383H77.2801" stroke="black" stroke-linecap="round" stroke-linejoin="round"/>
<path id="Stroke 7359" d="M53.1074 70.2812H77.2801" stroke="black" stroke-linecap="round" stroke-linejoin="round"/>
<path id="Stroke 7360" d="M53.1074 76.3242H66.7045" stroke="black" stroke-linecap="round" stroke-linejoin="round"/>
<path id="Rectangle" fill-rule="evenodd" clip-rule="evenodd" d="M80.3024 42.0781V46.1069H51.0938L80.3024 42.0781Z" fill="#0E67A9" fill-opacity="0.3"/>
<path id="Rectangle 6_2" fill-rule="evenodd" clip-rule="evenodd" d="M105.264 72.8867L107.4 75.0233L85.0393 97.3843L82.9027 95.2477L105.264 72.8867Z" fill="#0E67A9" fill-opacity="0.3"/>
</g>
</g>
</svg>
