<svg width="49" height="49" viewBox="0 0 49 49" fill="none" xmlns="http://www.w3.org/2000/svg">
<path d="M16.5 39.5V41.5" stroke="#231F20" stroke-linecap="round" stroke-linejoin="round"/>
<path d="M16.5 24.5V26.5" stroke="#231F20" stroke-linecap="round" stroke-linejoin="round"/>
<path fill-rule="evenodd" clip-rule="evenodd" d="M6.85077 45.9735C6.85077 45.9735 12.2036 48.5001 15.3359 48.5001C23.895 48.5001 30.8359 41.5602 30.8359 33.0001C30.8359 28.5377 25.9314 21.6875 25.9314 21.6875L6.85077 45.9735Z" fill="#0E67A9" fill-opacity="0.3"/>
<path d="M13.5 36.25C13.5 38.044 14.844 39.5 16.5 39.5C18.156 39.5 19.5 38.044 19.5 36.25C19.5 34.4549 18.156 33 16.5 33C14.844 33 13.5 31.544 13.5 29.75C13.5 27.9549 14.844 26.5 16.5 26.5C18.156 26.5 19.5 27.9549 19.5 29.75" stroke="#231F20" stroke-linecap="round" stroke-linejoin="round"/>
<path d="M17.0881 17.5548C16.7275 17.53 16.3679 17.5 16 17.5C7.4409 17.5 0.5 24.4409 0.5 33C0.5 41.5601 7.4409 48.5 16 48.5C24.5612 48.5 31.5 41.5601 31.5 33C31.5 32.6332 31.47 32.2736 31.4463 31.9129" stroke="#231F20" stroke-linecap="round" stroke-linejoin="round"/>
<path fill-rule="evenodd" clip-rule="evenodd" d="M48.5 16C48.5 24.5601 41.5612 31.5 33 31.5C24.4409 31.5 17.5 24.5601 17.5 16C17.5 7.43987 24.4409 0.5 33 0.5C41.5612 0.5 48.5 7.43987 48.5 16Z" fill="#F7F7F7" stroke="#231F20" stroke-linecap="round" stroke-linejoin="round"/>
<path fill-rule="evenodd" clip-rule="evenodd" d="M24.8508 28.9735C24.8508 28.9735 30.2036 31.5001 33.3359 31.5001C41.895 31.5001 48.8359 24.5602 48.8359 16.0001C48.8359 11.5377 43.9314 4.6875 43.9314 4.6875L24.8508 28.9735Z" fill="#B0CBDF"/>
<path d="M29.5 19.25C29.5 21.044 30.844 22.5 32.5 22.5C34.156 22.5 35.5 21.044 35.5 19.25C35.5 17.4549 34.156 16 32.5 16C30.844 16 29.5 14.544 29.5 12.75C29.5 10.9549 30.844 9.5 32.5 9.5C34.156 9.5 35.5 10.9549 35.5 12.75" stroke="#231F20" stroke-linecap="round" stroke-linejoin="round"/>
<path d="M32.5 22.5V24.5" stroke="#231F20" stroke-linecap="round" stroke-linejoin="round"/>
<path d="M32.5 7.5V9.5" stroke="#231F20" stroke-linecap="round" stroke-linejoin="round"/>
<path fill-rule="evenodd" clip-rule="evenodd" d="M48.5 16C48.5 24.5601 41.5612 31.5 33 31.5C24.4409 31.5 17.5 24.5601 17.5 16C17.5 7.43987 24.4409 0.5 33 0.5C41.5612 0.5 48.5 7.43987 48.5 16Z" stroke="#231F20" stroke-linecap="round" stroke-linejoin="round"/>
</svg>
