<svg width="131" height="131" viewBox="0 0 131 131" fill="none" xmlns="http://www.w3.org/2000/svg">
<g id="icon_stay_on_track">
<circle id="Oval" cx="65.5" cy="65.5" r="64.5" fill="white" stroke="#CCCCCC" stroke-width="2"/>
<g id="Group 2">
<path id="Stroke 1" fill-rule="evenodd" clip-rule="evenodd" d="M74.6783 37.6741C74.6783 42.4651 70.7937 46.3482 66.0042 46.3482C61.2146 46.3482 57.3301 42.4651 57.3301 37.6741C57.3301 32.8846 61.2146 29 66.0042 29C70.7937 29 74.6783 32.8846 74.6783 37.6741Z" stroke="#231F20" stroke-linecap="round" stroke-linejoin="round"/>
<path id="Stroke 3" d="M66.3027 46.3477V76.8566" stroke="#231F20" stroke-linecap="round" stroke-linejoin="round"/>
<path id="Path 13" d="M96.8125 63.0977V94.803L101 95.9994V64.2941L96.8125 63.0977Z" fill="#0E67A9" fill-opacity="0.3"/>
<path id="Stroke 5" d="M57.3043 63.467L54.3913 64.1106L34 58.3125V90.2019L54.3913 96L80.6087 90.2019L101 96V64.1106L80.6087 58.3125L74.7826 59.6011" stroke="#231F20" stroke-linecap="round" stroke-linejoin="round"/>
<path id="Stroke 7" d="M54.3398 63.6953V95.9989" stroke="#231F20" stroke-linejoin="round"/>
<path id="Stroke 9" d="M80.6602 58.3125V90.6161" stroke="#231F20" stroke-linejoin="round"/>
</g>
</g>
</svg>
